<?xml version="1.0" standalone="no"?>
<!DOCTYPE svg PUBLIC "-//W3C//DTD SVG 20010904//EN"
 "http://www.w3.org/TR/2001/REC-SVG-20010904/DTD/svg10.dtd">
<svg version="1.0" xmlns="http://www.w3.org/2000/svg"
 width="5510.000000pt" height="1550.000000pt" viewBox="0 0 5510.000000 1550.000000"
 preserveAspectRatio="xMidYMid meet">

<g transform="translate(0.000000,1550.000000) scale(0.100000,-0.100000)"
fill="#000000" stroke="none">
<path d="M2720 13794 c-159 -31 -315 -104 -415 -196 -148 -136 -237 -316 -264
-533 -15 -120 -16 -8467 -1 -8700 32 -511 129 -905 315 -1280 366 -740 1037
-1197 1969 -1339 513 -79 1027 -67 1468 34 277 63 453 126 698 250 431 219
797 550 1065 964 l67 103 113 -113 c672 -667 1565 -1095 2600 -1243 330 -48
443 -55 875 -55 425 -1 521 4 800 45 784 114 1468 414 2084 915 153 125 460
431 595 593 553 664 999 1510 1371 2596 34 99 158 497 276 885 118 388 217
711 219 718 3 9 31 -19 72 -70 84 -106 398 -419 528 -527 179 -149 390 -301
1025 -741 939 -651 1055 -734 1225 -877 172 -145 294 -372 340 -639 27 -149
25 -398 -4 -532 -80 -380 -305 -667 -655 -838 -433 -210 -944 -225 -1606 -44
-80 22 -282 84 -450 139 -439 142 -455 146 -635 146 -166 0 -204 -8 -325 -71
-176 -92 -282 -255 -311 -480 -35 -274 78 -507 328 -674 371 -248 1223 -488
1923 -541 199 -15 651 -7 820 15 570 74 1020 231 1430 500 567 372 948 960
1064 1646 55 322 45 758 -24 1096 -74 362 -246 719 -496 1034 -96 121 -397
417 -544 536 -188 151 -253 198 -1060 759 -410 284 -797 556 -860 603 -67 50
-180 151 -271 241 -222 222 -324 383 -387 611 -24 85 -27 112 -27 265 0 138 4
182 19 235 46 156 127 293 235 393 82 75 132 109 243 162 199 95 396 131 678
122 338 -11 526 -54 1011 -233 338 -124 398 -138 599 -139 169 0 199 5 304 50
65 28 151 91 200 147 51 57 117 185 134 258 32 132 23 313 -20 427 -28 75
-109 193 -171 249 -117 106 -296 204 -568 310 -299 116 -640 196 -1036 240
-191 21 -722 30 -894 15 -783 -71 -1429 -382 -1872 -901 -361 -422 -653 -933
-922 -1610 -134 -338 -187 -498 -466 -1420 -268 -881 -324 -1055 -426 -1330
-318 -849 -701 -1489 -1173 -1960 -482 -482 -1051 -765 -1729 -860 -471 -67
-1002 -37 -1447 80 -1161 306 -1946 1194 -2174 2460 -73 407 -84 920 -30 1345
106 823 429 1505 953 2011 415 402 931 651 1542 746 122 19 183 22 465 22 208
1 363 -4 430 -12 468 -57 804 -151 1271 -356 220 -96 366 -129 574 -128 143 0
236 18 339 67 166 78 291 233 341 420 23 84 30 246 16 330 -41 233 -212 432
-498 578 -1064 544 -2643 690 -3858 356 -1248 -342 -2223 -1143 -2780 -2284
-299 -612 -458 -1240 -506 -1995 -13 -201 -7 -662 11 -865 45 -508 144 -964
302 -1393 l61 -164 -46 -91 c-241 -486 -596 -842 -993 -997 -217 -85 -407
-115 -672 -107 -262 7 -437 45 -629 137 -134 64 -230 131 -332 232 -169 169
-285 386 -354 663 -40 157 -58 294 -67 510 -5 110 -10 1292 -10 2628 l0 2427
1048 0 c671 0 1078 4 1132 11 125 15 194 35 299 86 78 37 109 59 176 127 131
131 185 266 185 462 0 326 -194 566 -533 656 -82 22 -85 22 -1194 25 l-1113 4
0 957 c0 626 -4 979 -11 1018 -57 327 -275 573 -584 659 -59 17 -337 30 -395
19z"/>
<path d="M24220 13365 l0 -435 425 0 425 0 0 -1075 0 -1075 605 0 605 0 0
1075 0 1075 425 0 425 0 0 435 0 435 -1455 0 -1455 0 0 -435z"/>
<path d="M27425 12309 c-313 -821 -571 -1500 -573 -1510 -3 -19 14 -19 585
-17 l588 3 305 897 c168 493 308 891 311 885 4 -7 140 -405 303 -885 164 -481
300 -880 303 -888 4 -12 96 -14 594 -14 324 0 589 2 589 4 0 2 -255 669 -566
1482 -311 813 -571 1491 -576 1507 l-10 27 -641 0 -642 0 -570 -1491z"/>
<path d="M30140 13365 l0 -435 430 0 430 0 0 -1075 0 -1075 600 0 600 0 0
1075 0 1075 430 0 430 0 0 435 0 435 -1460 0 -1460 0 0 -435z"/>
<path d="M33909 13773 c-6 -16 -263 -687 -571 -1493 -308 -806 -563 -1473
-566 -1482 -4 -17 29 -18 585 -18 l590 0 304 895 c167 492 306 895 309 895 3
0 142 -403 309 -895 l305 -895 589 0 589 0 -6 23 c-3 12 -262 690 -575 1507
l-568 1485 -642 3 -641 2 -11 -27z"/>
<path d="M25635 9314 c-748 -82 -1259 -541 -1391 -1251 -24 -134 -30 -440 -10
-589 94 -711 555 -1164 1276 -1253 109 -14 413 -14 538 0 180 19 431 79 478
114 17 12 15 25 -25 221 -24 115 -45 212 -47 215 -1 3 -47 -9 -101 -27 -136
-45 -261 -65 -448 -71 -367 -12 -628 83 -836 305 -120 128 -205 302 -246 508
-22 112 -25 412 -4 524 32 180 105 354 202 483 263 350 802 468 1323 291 55
-18 101 -32 103 -31 1 2 29 99 61 217 l59 215 -56 26 c-71 33 -188 64 -316 85
-97 15 -474 27 -560 18z"/>
<path d="M27920 9305 c-307 -49 -564 -184 -776 -408 -274 -290 -413 -677 -414
-1154 0 -266 37 -477 121 -688 230 -577 758 -897 1397 -846 356 29 636 148
866 371 324 313 480 787 445 1350 -15 250 -65 445 -169 657 -194 397 -543 652
-983 717 -127 19 -368 19 -487 1z m398 -445 c143 -34 245 -94 353 -206 111
-117 184 -245 238 -419 51 -167 65 -269 65 -470 -1 -211 -22 -350 -80 -515
-62 -180 -124 -283 -238 -395 -136 -133 -280 -194 -478 -203 -146 -6 -238 13
-363 73 -284 136 -472 474 -504 907 -34 462 121 897 394 1105 167 127 400 174
613 123z"/>
<path d="M33845 9309 c-262 -35 -465 -129 -625 -289 -79 -78 -104 -111 -143
-187 -68 -131 -89 -220 -90 -373 -1 -151 14 -215 79 -350 39 -79 62 -109 138
-186 147 -148 272 -221 607 -354 229 -90 318 -139 403 -219 120 -115 153 -260
94 -418 -23 -62 -99 -150 -161 -186 -222 -130 -634 -105 -990 61 -53 25 -99
43 -101 41 -2 -2 -31 -104 -63 -227 l-60 -223 41 -23 c105 -61 355 -132 546
-156 125 -15 386 -12 507 6 372 55 647 231 779 499 65 132 86 223 87 380 1
163 -18 257 -80 382 -106 218 -316 376 -711 533 -348 139 -462 211 -521 333
-90 183 -15 372 182 462 190 87 522 66 795 -52 46 -19 85 -34 87 -32 1 2 32
102 68 223 l65 218 -62 28 c-78 36 -213 74 -331 96 -107 19 -438 27 -540 13z"/>
<path d="M49275 9309 c-557 -68 -1001 -368 -1220 -824 -125 -261 -182 -588
-156 -903 33 -410 161 -712 406 -957 203 -204 457 -331 780 -391 82 -16 149
-19 365 -19 285 0 388 11 578 60 77 21 192 62 192 70 0 1 -20 98 -45 215 -25
117 -45 214 -45 215 0 2 -37 -10 -82 -26 -174 -59 -369 -84 -578 -76 -299 13
-522 99 -696 272 -201 199 -295 458 -295 815 0 413 138 723 408 916 283 203
723 246 1128 110 55 -19 103 -31 106 -28 4 4 33 101 64 216 53 193 56 211 40
222 -31 23 -208 74 -330 95 -139 24 -487 34 -620 18z"/>
<path d="M30040 7760 l0 -1510 255 0 255 0 0 768 c0 710 -10 1303 -26 1515 -3
48 -2 87 3 87 4 0 28 -44 53 -97 170 -378 293 -600 851 -1542 l433 -731 283 0
283 0 0 1510 0 1510 -257 0 -256 0 6 -827 c6 -793 13 -1020 38 -1326 6 -76 9
-140 7 -142 -2 -3 -35 64 -72 148 -89 198 -249 511 -364 712 -50 88 -264 446
-474 795 l-383 635 -317 3 -318 2 0 -1510z"/>
<path d="M35393 8268 c3 -981 4 -1006 25 -1118 90 -470 306 -754 671 -879 315
-108 772 -83 1056 59 353 175 548 508 594 1010 7 70 11 467 11 1023 l0 907
-274 0 -275 0 -4 -967 c-4 -1062 -3 -1051 -66 -1237 -36 -109 -81 -185 -151
-256 -66 -66 -122 -100 -215 -132 -94 -31 -300 -33 -385 -4 -188 65 -310 196
-380 409 -54 166 -53 146 -57 1205 l-4 982 -275 0 -275 0 4 -1002z"/>
<path d="M38380 7760 l0 -1510 895 0 895 0 0 235 0 235 -620 0 -620 0 0 1275
0 1275 -275 0 -275 0 0 -1510z"/>
<path d="M39860 9040 l0 -230 435 0 435 0 0 -1280 0 -1280 275 0 275 0 0 1280
0 1280 435 0 435 0 0 230 0 230 -1145 0 -1145 0 0 -230z"/>
<path d="M42435 7774 c-264 -823 -481 -1502 -483 -1510 -3 -12 42 -14 282 -14
l285 0 35 113 c19 61 62 204 96 317 34 113 77 256 96 318 l35 112 474 0 c261
0 476 -4 479 -8 3 -5 65 -197 139 -428 l135 -419 297 -3 c286 -2 297 -2 293
16 -3 10 -223 690 -489 1510 l-484 1492 -355 0 -355 0 -480 -1496z m825 1043
c0 -40 136 -516 243 -852 69 -214 128 -400 131 -412 l7 -23 -386 0 c-355 0
-387 1 -381 16 45 117 261 839 308 1032 34 138 66 252 70 252 5 0 8 -6 8 -13z"/>
<path d="M45020 7760 l0 -1510 255 0 255 0 0 778 c0 720 -11 1329 -26 1515 -3
43 -2 77 3 77 5 0 35 -57 67 -127 68 -149 247 -500 336 -658 34 -60 258 -442
498 -847 l437 -738 288 0 287 0 0 1510 0 1510 -255 0 -255 0 0 -802 c0 -772 6
-1020 31 -1341 6 -81 9 -150 7 -152 -2 -2 -30 55 -63 128 -66 149 -221 462
-296 600 -28 51 -249 424 -492 829 l-442 737 -317 1 -318 0 0 -1510z"/>
<path d="M50423 9263 c2 -5 217 -400 476 -879 l471 -871 0 -632 0 -631 275 0
275 0 0 633 0 632 496 864 c272 474 498 869 501 877 4 12 -41 14 -307 12
l-311 -3 -228 -485 c-125 -267 -265 -573 -311 -680 -46 -107 -84 -196 -85
-198 -1 -1 -28 60 -60 135 -48 113 -210 469 -526 1151 l-38 82 -316 0 c-174 0
-314 -3 -312 -7z"/>
<path d="M25160 4784 c-151 -19 -315 -66 -425 -122 -206 -103 -361 -279 -431
-487 -22 -66 -28 -103 -32 -211 -5 -156 11 -250 64 -360 113 -239 329 -399
755 -562 311 -119 437 -206 501 -348 18 -40 22 -67 22 -144 0 -123 -24 -189
-97 -263 -106 -106 -235 -149 -447 -150 -84 0 -173 7 -235 18 -121 21 -313 82
-417 133 -43 21 -78 37 -78 36 0 -1 -27 -102 -60 -225 -33 -123 -60 -226 -60
-230 0 -12 154 -77 255 -108 194 -59 350 -81 573 -81 536 0 917 204 1070 573
47 113 65 229 59 377 -3 69 -13 152 -22 185 -38 139 -132 287 -241 381 -133
115 -259 184 -529 294 -281 115 -365 160 -451 245 -82 81 -105 134 -105 237 0
180 129 310 351 354 104 21 291 14 420 -15 87 -20 242 -72 293 -98 16 -8 31
-12 34 -9 3 2 31 91 62 198 32 106 61 203 65 216 7 20 1 25 -56 52 -79 36
-215 76 -333 96 -87 15 -429 27 -505 18z"/>
<path d="M36653 4779 c-361 -42 -684 -187 -921 -413 -291 -278 -441 -635 -459
-1091 -19 -491 120 -891 411 -1181 230 -230 512 -358 889 -405 126 -15 496 -6
632 15 128 21 254 52 331 83 l61 24 -44 217 c-25 119 -46 218 -47 218 0 1 -46
-13 -101 -31 -132 -44 -259 -65 -431 -72 -501 -21 -857 179 -1027 576 -75 175
-109 422 -89 641 35 372 179 639 437 808 289 190 748 221 1130 77 37 -14 70
-23 73 -20 3 2 31 100 63 217 51 185 57 214 44 224 -49 36 -296 96 -474 114
-119 12 -373 11 -478 -1z"/>
<path d="M41117 4774 c-351 -54 -620 -230 -750 -490 -105 -209 -109 -491 -10
-689 115 -229 351 -404 733 -545 241 -89 412 -189 473 -278 56 -80 72 -131 71
-227 0 -76 -4 -99 -26 -147 -36 -79 -70 -120 -132 -162 -217 -150 -642 -131
-1025 46 -47 21 -88 35 -92 31 -7 -8 -119 -421 -119 -440 0 -13 137 -76 235
-108 100 -32 240 -61 370 -76 143 -17 443 -6 567 21 401 85 669 313 759 645
32 114 32 345 1 458 -44 159 -141 306 -273 411 -131 104 -254 169 -522 277
-410 164 -529 269 -531 469 -1 66 3 84 32 142 55 112 161 183 316 213 194 37
471 -3 692 -101 31 -14 58 -23 60 -22 1 2 32 100 67 218 75 248 79 222 -47
271 -99 38 -258 74 -388 88 -131 15 -353 12 -461 -5z"/>
<path d="M26670 3230 l0 -1510 915 0 915 0 0 230 0 230 -635 0 -635 0 0 440 0
440 565 0 565 0 0 225 0 225 -565 0 -565 0 0 390 0 390 600 0 600 0 0 225 0
225 -880 0 -880 0 0 -1510z"/>
<path d="M29313 4725 c-131 -13 -267 -32 -310 -42 l-23 -5 0 -1479 0 -1479
275 0 275 0 0 621 0 622 188 -6 c198 -6 263 -17 351 -61 93 -48 174 -154 222
-293 11 -32 49 -177 85 -323 67 -275 111 -431 146 -512 l20 -48 279 0 c154 0
279 2 279 4 0 2 -18 57 -40 122 -21 66 -79 277 -129 469 -94 370 -108 412
-174 540 -51 98 -164 216 -250 261 l-59 31 78 37 c208 99 360 265 430 471 36
106 45 308 19 436 -75 372 -364 582 -877 638 -131 15 -622 12 -785 -4z m781
-420 c77 -21 165 -66 211 -106 144 -127 185 -364 96 -555 -55 -118 -158 -202
-305 -251 -77 -25 -94 -27 -323 -31 l-243 -4 0 475 0 475 73 10 c110 16 419 8
491 -13z"/>
<path d="M31270 4730 c0 -9 797 -2481 916 -2843 l56 -167 316 2 317 3 521
1508 521 1507 -296 -2 -296 -3 -192 -605 c-355 -1114 -439 -1394 -514 -1707
-19 -79 -36 -143 -39 -143 -3 0 -25 82 -49 183 -66 276 -140 536 -407 1427
-135 448 -247 823 -250 833 -5 16 -28 17 -305 17 -191 0 -299 -4 -299 -10z"/>
<path d="M34240 3230 l0 -1510 275 0 275 0 0 1510 0 1510 -275 0 -275 0 0
-1510z"/>
<path d="M38060 3230 l0 -1510 910 0 910 0 0 230 0 230 -635 0 -635 0 0 440 0
440 570 0 570 0 0 225 0 225 -567 2 -568 3 -3 388 -2 387 605 0 605 0 0 225 0
225 -880 0 -880 0 0 -1510z"/>
</g>
</svg>
